<svg aria-hidden="true" style="position: absolute; width: 0; height: 0; overflow: hidden;" version="1.1" xmlns="http://www.w3.org/2000/svg" xmlns:xlink="http://www.w3.org/1999/xlink">
<defs>
  <symbol id="icon-icon" viewBox="0 0 32 32">
  <path fill="#161616" style="fill: var(--color1, #161616)" d="M26.667 0h-21.333c-2.946 0-5.333 2.388-5.333 5.333v21.333c0 2.946 2.388 5.333 5.333 5.333h21.333c2.946 0 5.333-2.388 5.333-5.333v-21.333c0-2.946-2.388-5.333-5.333-5.333z"></path>
  <path fill="" d="M13.331 23.027c0.244-1.272 0.453-2.61 0.747-3.949 0.145-0.701-0.032-0.999-0.815-0.946s-1.657 0.027-2.49 0c-0.833-0.027-0.982-0.446-0.502-1.044 2.363-2.918 4.753-5.8 7.134-8.674 0.267-0.326 0.575-0.558 1.014-0.312s0.349 0.549 0.276 0.915c-0.263 1.339-0.48 2.677-0.77 3.989-0.149 0.678 0.045 0.919 0.751 0.892 0.709-0.036 1.419-0.036 2.127 0 0.403 0 0.932-0.21 1.141 0.339s-0.231 0.781-0.453 1.107c-0.905 1.115-1.823 2.229-2.752 3.342-1.361 1.624-2.711 3.242-4.051 4.854-0.263 0.317-0.557 0.571-1.005 0.41s-0.353-0.54-0.353-0.924z"></path>
</symbol>
<symbol id="icon-eye" viewBox="0 0 32 32">
<path stroke-linejoin="round" stroke-linecap="round" stroke-miterlimit="4" stroke-width="2.3111" d="M1.333 16s5.333-10.667 14.667-10.667 14.667 10.667 14.667 10.667-5.333 10.667-14.667 10.667-14.667-10.667-14.667-10.667z"></path>
<path stroke-linejoin="round" stroke-linecap="round" stroke-miterlimit="4" stroke-width="2.3111" d="M16 20c2.209 0 4-1.791 4-4s-1.791-4-4-4v0c-2.209 0-4 1.791-4 4s1.791 4 4 4v0z"></path>
</symbol>
<symbol id="icon-plus" viewBox="0 0 32 32">
<path stroke-linejoin="round" stroke-linecap="round" stroke-miterlimit="4" stroke-width="2.88" d="M16 6.667v18.666M6.667 16h18.666"></path>
</symbol>
<symbol id="icon-help-circle" viewBox="0 0 32 32">
<path fill="none"  stroke-linejoin="round" stroke-linecap="round" stroke-miterlimit="4" stroke-width="2.88" d="M16 29.333c7.364 0 13.333-5.969 13.333-13.333s-5.969-13.333-13.333-13.333v0c-7.364 0-13.333 5.969-13.333 13.333s5.969 13.333 13.333 13.333v0z"></path>
<path fill="none"  stroke-linejoin="round" stroke-linecap="round" stroke-miterlimit="4" stroke-width="2.88" d="M12.12 12c0.564-1.569 2.040-2.671 3.773-2.671 2.209 0 4 1.791 4 4 0 0.001 0 0.003 0 0.004v-0c0 2.667-4 4-4 4M16 22.667h0.019"></path>
</symbol>
<symbol id="icon-login" viewBox="0 0 32 32">
<path d="M0 0h32v32h-32z"></path>
<path d="M-24-714h1440v770h-1440z"></path>
<path d="M-24-714h260v770h-260z"></path>
<path stroke-linejoin="round" stroke-linecap="round" stroke-miterlimit="4" stroke-width="1.5" d="M11.867 10.080c0.413-4.8 2.88-6.76 8.28-6.76h0.173c5.96 0 8.347 2.387 8.347 8.347v8.693c0 5.96-2.387 8.347-8.347 8.347h-0.173c-5.36 0-7.827-1.934-8.267-6.654M2.667 16h17.173"></path>
<path stroke-linejoin="round" stroke-linecap="round" stroke-miterlimit="4" stroke-width="1.5" d="M16.867 11.533l4.466 4.467-4.466 4.467"></path>
</symbol>
<symbol id="icon-filter" viewBox="0 0 32 32">
  <path stroke-linejoin="round" fill='transparent' stroke-linecap="round" stroke-miterlimit="4" stroke-width="3" d="M29.334 4h-26.668l10.668 12.614v8.72l5.332 2.666v-11.386l10.668-12.614z"></path>
</symbol>
<symbol id="icon-chevron-down" viewBox="0 0 32 32">
<path stroke-linejoin="round" stroke-linecap="round" stroke-miterlimit="4" stroke-width="2.8235" d="M8.471 12.235l7.529 7.529 7.529-7.529"></path>
</symbol>
<symbol id="icon-arrow-circle-broken-right" viewBox="0 0 32 32">
<path stroke-linejoin="round" stroke-linecap="round" stroke-miterlimit="4" stroke-width="2.6" d="M4.45 9.334c2.348-4.014 6.638-6.667 11.548-6.667 7.364 0 13.334 5.97 13.334 13.334s-5.97 13.334-13.334 13.334c-4.909 0-9.199-2.653-11.514-6.604l-0.034-0.063"></path>
<path stroke-linejoin="round" stroke-linecap="round" stroke-miterlimit="4" stroke-width="2.6" d="M16 21.334l5.334-5.334-5.334-5.334M2.666 16h18.668"></path>
</symbol>
<symbol id="icon-pencil" viewBox="0 0 32 32">
<path stroke-linejoin="round" stroke-linecap="round" stroke-miterlimit="4" stroke-width="2.6" d="M3.333 28.667l7.399-2.846c0.473-0.182 0.71-0.273 0.931-0.392 0.197-0.106 0.384-0.227 0.56-0.364 0.199-0.154 0.378-0.333 0.736-0.692l15.040-15.040c1.473-1.473 1.473-3.861 0-5.333s-3.861-1.473-5.333 0l-15.040 15.040c-0.359 0.359-0.538 0.538-0.692 0.736-0.137 0.176-0.259 0.364-0.364 0.56-0.119 0.221-0.21 0.458-0.392 0.931l-2.846 7.399zM3.333 28.667l2.744-7.135c0.196-0.511 0.295-0.766 0.463-0.883 0.147-0.102 0.329-0.141 0.505-0.107 0.201 0.038 0.395 0.232 0.782 0.619l3.012 3.012c0.387 0.387 0.58 0.58 0.619 0.782 0.034 0.176-0.005 0.358-0.107 0.505-0.117 0.168-0.372 0.267-0.883 0.463l-7.135 2.744z"></path>
</symbol>
<symbol id="icon-puzzle-piece" viewBox="0 0 32 32">
<path stroke-linejoin="round" stroke-linecap="round" stroke-miterlimit="4" stroke-width="2.6667" d="M16 2.667l4.8 4.8c3.2-8.4 12.133 0.533 3.733 3.733l4.8 4.8-4.8 4.8c-3.2-8.4-12.133 0.533-3.733 3.733l-4.8 4.8-4.8-4.8c-3.2 8.4-12.133-0.533-3.733-3.733l-4.8-4.8 4.8-4.8c3.2 8.4 12.133-0.533 3.733-3.733l4.8-4.8z"></path>
</symbol>
<symbol id="icon-trash" viewBox="0 0 32 32">
<path stroke-linejoin="round" stroke-linecap="round" stroke-miterlimit="4" stroke-width="2.6" d="M12 4h8"></path>
<path stroke-linejoin="round" stroke-linecap="round" stroke-miterlimit="4" stroke-width="2.6" d="M4 8h24"></path>
<path stroke-linejoin="round" stroke-linecap="round" stroke-miterlimit="4" stroke-width="2.6" d="M6.667 8l0.801 12.018c0.149 2.231 0.223 3.347 0.588 4.243 0.662 1.627 2.004 2.883 3.672 3.435 0.919 0.304 2.037 0.304 4.273 0.304v0c2.236 0 3.354 0 4.273-0.304 1.668-0.552 3.010-1.808 3.672-3.435 0.365-0.896 0.439-2.012 0.588-4.243l0.801-12.018"></path>
</symbol>
<symbol id="icon-x-close" viewBox="0 0 32 32">
<path stroke-linejoin="round" stroke-linecap="round" stroke-miterlimit="4" stroke-width="2.6667" d="M24 8l-16 16M8 8l16 16"></path>
</symbol>
<symbol id="icon-bell" viewBox="0 0 32 32">
<path stroke-linejoin="round" stroke-linecap="round" stroke-miterlimit="4" stroke-width="3" d="M12.472 28c0.94 0.83 2.176 1.334 3.528 1.334s2.588-0.504 3.528-1.334M24 10.666c0-4.418-3.582-8-8-8s-8 3.582-8 8v0c0 4.12-1.040 6.942-2.2 8.808-0.98 1.574-1.47 2.36-1.452 2.58 0.020 0.244 0.072 0.336 0.268 0.48 0.176 0.132 0.974 0.132 2.57 0.132h17.628c1.596 0 2.394 0 2.57-0.13 0.196-0.146 0.248-0.24 0.268-0.48 0.018-0.22-0.472-1.008-1.452-2.582-1.16-1.866-2.2-4.686-2.2-8.808z"></path>
</symbol>
<symbol id="icon-star" viewBox="0 0 32 32">
<path stroke-linejoin="round" stroke-linecap="round" stroke-miterlimit="4" stroke-width="2.6667" d="M16 2.667l2.683 6.974c0.375 0.978 0.564 1.467 0.857 1.877 0.258 0.364 0.578 0.684 0.942 0.942 0.409 0.293 0.9 0.48 1.877 0.857l6.974 2.683-6.974 2.683c-0.978 0.375-1.467 0.564-1.877 0.857-0.367 0.263-0.679 0.575-0.934 0.93l-0.008 0.012c-0.293 0.409-0.48 0.9-0.857 1.877l-2.683 6.974-2.683-6.974c-0.375-0.978-0.564-1.467-0.857-1.877-0.263-0.367-0.575-0.679-0.93-0.934l-0.012-0.008c-0.409-0.293-0.9-0.48-1.877-0.857l-6.974-2.683 6.974-2.683c0.978-0.375 1.467-0.564 1.877-0.857 0.367-0.263 0.679-0.575 0.934-0.93l0.008-0.012c0.293-0.409 0.48-0.9 0.857-1.877l2.683-6.974z"></path>
</symbol>
<symbol id="icon-loading" viewBox="0 0 32 32">
<path stroke-linejoin="round" stroke-linecap="round" stroke-miterlimit="4" stroke-width="2.6667" d="M4.453 22.667c-0.536-0.913-0.853-2.011-0.853-3.183 0-2.183 1.099-4.11 2.775-5.256l0.022-0.014 0.004-0.004c1-0.684 2.235-1.092 3.566-1.092 1.408 0 2.709 0.457 3.764 1.23l-0.018-0.012 4.576 3.328c1.036 0.761 2.337 1.217 3.745 1.217 1.331 0 2.567-0.408 3.589-1.107l-0.022 0.014 0.004-0.002c1.698-1.16 2.797-3.086 2.797-5.269 0-1.173-0.317-2.271-0.871-3.214l0.016 0.030M22.67 27.547c-0.913 0.536-2.010 0.852-3.181 0.852-2.184 0-4.112-1.1-5.258-2.777l-0.014-0.022-0.004-0.004c-0.684-1-1.093-2.236-1.093-3.567 0-1.407 0.457-2.708 1.229-3.763l-0.012 0.018 3.328-4.576c0.761-1.037 1.218-2.338 1.218-3.746 0-1.331-0.408-2.566-1.106-3.588l0.014 0.022-0.005-0.002c-1.161-1.696-3.087-2.795-5.269-2.795-1.172 0-2.271 0.317-3.214 0.87l0.030-0.016M25.428 6.572c2.413 2.413 3.905 5.746 3.905 9.428s-1.492 7.015-3.905 9.428l0-0c-2.413 2.413-5.746 3.905-9.428 3.905s-7.015-1.492-9.428-3.905l0 0c-2.413-2.413-3.905-5.746-3.905-9.428s1.492-7.015 3.905-9.428l-0 0c2.413-2.413 5.746-3.905 9.428-3.905s7.015 1.492 9.428 3.905l-0-0z"></path>
</symbol>
<symbol id="icon-container" viewBox="0 0 32 32">
<path stroke-linejoin="round" stroke-linecap="round" stroke-miterlimit="4" stroke-width="2.6667" d="M27.333 9.703l-11.333 6.297M16 16l-11.333-6.297M16 16v12.667M28 21.412v-10.823c0-0.457 0-0.684-0.068-0.889-0.063-0.188-0.16-0.35-0.285-0.486l0.001 0.001c-0.146-0.158-0.347-0.268-0.747-0.491l-9.867-5.481c-0.377-0.21-0.565-0.315-0.764-0.356-0.081-0.017-0.174-0.027-0.269-0.027s-0.188 0.010-0.278 0.029l0.009-0.002c-0.201 0.041-0.391 0.146-0.768 0.356l-9.867 5.481c-0.398 0.222-0.599 0.332-0.745 0.491-0.124 0.135-0.221 0.297-0.282 0.476l-0.003 0.009c-0.068 0.204-0.068 0.432-0.068 0.889v10.823c0 0.457 0 0.684 0.068 0.889 0.063 0.188 0.16 0.35 0.285 0.486l-0.001-0.001c0.146 0.158 0.347 0.268 0.747 0.491l9.867 5.481c0.377 0.21 0.565 0.316 0.764 0.356 0.178 0.037 0.361 0.037 0.539 0 0.201-0.041 0.391-0.146 0.768-0.356l9.867-5.481c0.398-0.222 0.599-0.332 0.745-0.491 0.124-0.135 0.221-0.297 0.282-0.476l0.003-0.009c0.068-0.204 0.068-0.432 0.068-0.889z"></path>
</symbol>
<symbol id="icon-lightning" viewBox="0 0 32 32">
<path stroke-linejoin="round" stroke-linecap="round" stroke-miterlimit="4" stroke-width="2.6667" d="M18.999 2.667h-7.675c-0.238 0-0.357 0-0.462 0.036-0.098 0.034-0.182 0.087-0.251 0.155l0-0c-0.080 0.078-0.133 0.185-0.24 0.4l-5.6 11.2c-0.256 0.51-0.384 0.766-0.354 0.974 0.029 0.186 0.131 0.345 0.275 0.447l0.002 0.001c0.172 0.121 0.46 0.121 1.031 0.121h8.274l-4 13.333 16.258-16.86c0.548-0.569 0.821-0.853 0.837-1.095 0.001-0.013 0.001-0.028 0.001-0.044 0-0.204-0.091-0.386-0.235-0.508l-0.001-0.001c-0.187-0.158-0.581-0.158-1.371-0.158h-9.49l2.999-8z"></path>
</symbol>
<symbol id="icon-colors" viewBox="0 0 32 32">
<path stroke-linejoin="round" stroke-linecap="round" stroke-miterlimit="4" stroke-width="2.6667" d="M16 27.296c1.408 1.262 3.278 2.033 5.328 2.033 4.418 0 8-3.582 8-8 0-3.667-2.467-6.758-5.832-7.703l-0.056-0.014M8.56 13.612c-3.418 0.962-5.882 4.052-5.882 7.717 0 4.415 3.575 7.995 7.988 8.004h0.001c0.001 0 0.002 0 0.003 0 4.418 0 8-3.582 8-8 0-1.061-0.207-2.074-0.582-3.001l0.019 0.054M24 10.667c0 4.418-3.582 8-8 8s-8-3.582-8-8v0c0-4.418 3.582-8 8-8s8 3.582 8 8v0z"></path>
</symbol>
<symbol id="icon-hexagon" viewBox="0 0 32 32">
<path stroke-linejoin="round" stroke-linecap="round" stroke-miterlimit="4" stroke-width="2.6667" d="M14.964 3.243c0.379-0.21 0.569-0.315 0.768-0.356 0.081-0.017 0.173-0.027 0.268-0.027s0.188 0.010 0.277 0.029l-0.009-0.002c0.201 0.041 0.391 0.146 0.768 0.356l9.867 5.481c0.398 0.222 0.599 0.332 0.745 0.491 0.124 0.135 0.221 0.297 0.282 0.476l0.003 0.009c0.068 0.204 0.068 0.432 0.068 0.889v10.823c0 0.457 0 0.684-0.068 0.889-0.063 0.188-0.16 0.35-0.285 0.486l0.001-0.001c-0.146 0.158-0.347 0.268-0.747 0.491l-9.867 5.481c-0.377 0.21-0.565 0.316-0.764 0.356-0.081 0.017-0.174 0.027-0.269 0.027s-0.188-0.010-0.278-0.029l0.009 0.002c-0.201-0.041-0.391-0.146-0.768-0.356l-9.867-5.481c-0.398-0.222-0.599-0.332-0.745-0.491-0.124-0.135-0.221-0.297-0.282-0.476l-0.003-0.009c-0.068-0.204-0.068-0.432-0.068-0.889v-10.823c0-0.457 0-0.684 0.068-0.889 0.063-0.188 0.16-0.35 0.285-0.486l-0.001 0.001c0.146-0.158 0.347-0.268 0.747-0.491l9.867-5.481z"></path>
</symbol>
<symbol id="icon-project" viewBox="0 0 32 32">
<path stroke-linejoin="miter" stroke-linecap="butt" stroke-miterlimit="4" stroke-width="2.6667" d="M4.396 6.978c0.309-1.282 1.299-2.272 2.558-2.576l0.024-0.005c0.507-0.124 1.090-0.196 1.689-0.196s1.182 0.071 1.739 0.206l-0.050-0.010c1.282 0.309 2.272 1.299 2.576 2.558l0.005 0.024c0.124 0.507 0.196 1.090 0.196 1.689s-0.071 1.182-0.206 1.739l0.010-0.050c-0.309 1.282-1.299 2.272-2.558 2.576l-0.024 0.005c-0.507 0.124-1.090 0.196-1.689 0.196s-1.182-0.071-1.739-0.206l0.050 0.010c-1.282-0.309-2.272-1.299-2.577-2.558l-0.005-0.024c-0.124-0.507-0.196-1.090-0.196-1.689s0.071-1.182 0.206-1.739l-0.010 0.050zM4.396 21.644c0.309-1.282 1.299-2.273 2.558-2.576l0.024-0.005c0.507-0.124 1.090-0.196 1.689-0.196s1.182 0.071 1.739 0.206l-0.050-0.010c1.282 0.309 2.272 1.299 2.576 2.558l0.005 0.024c0.124 0.507 0.195 1.090 0.195 1.689s-0.071 1.182-0.206 1.739l0.010-0.050c-0.309 1.282-1.299 2.273-2.558 2.576l-0.024 0.005c-0.507 0.124-1.090 0.196-1.689 0.196s-1.182-0.071-1.739-0.206l0.050 0.010c-1.282-0.309-2.272-1.299-2.577-2.558l-0.005-0.024c-0.124-0.507-0.195-1.090-0.195-1.689s0.071-1.182 0.206-1.739l-0.010 0.050zM19.063 6.978c0.309-1.282 1.299-2.272 2.558-2.576l0.024-0.005c0.507-0.124 1.090-0.195 1.689-0.195s1.182 0.071 1.739 0.206l-0.050-0.010c1.282 0.309 2.273 1.299 2.576 2.558l0.005 0.024c0.124 0.507 0.196 1.090 0.196 1.689s-0.071 1.182-0.206 1.739l0.010-0.050c-0.309 1.282-1.299 2.272-2.558 2.576l-0.024 0.005c-0.507 0.124-1.090 0.195-1.689 0.195s-1.182-0.071-1.739-0.206l0.050 0.010c-1.282-0.309-2.273-1.299-2.576-2.558l-0.005-0.024c-0.124-0.507-0.196-1.090-0.196-1.689s0.071-1.182 0.206-1.739l-0.010 0.050zM19.063 21.644c0.308-1.282 1.299-2.273 2.558-2.576l0.024-0.005c0.507-0.124 1.090-0.196 1.689-0.196s1.182 0.071 1.739 0.206l-0.050-0.010c1.28 0.3 2.281 1.301 2.581 2.581 0.124 0.507 0.196 1.090 0.196 1.689s-0.071 1.182-0.206 1.739l0.010-0.050c-0.308 1.282-1.299 2.273-2.558 2.576l-0.024 0.005c-0.507 0.124-1.090 0.196-1.689 0.196s-1.182-0.071-1.739-0.206l0.050 0.010c-1.282-0.308-2.273-1.299-2.576-2.558l-0.005-0.024c-0.124-0.507-0.196-1.090-0.196-1.689s0.071-1.182 0.206-1.739l-0.010 0.050z"></path>
</symbol>
<symbol id="icon-arrow-left" viewBox="0 0 32 32">
<path stroke-linejoin="round" stroke-linecap="round" stroke-miterlimit="4" stroke-width="4.8" d="M22.4 28.8l-12.8-12.8 12.8-12.8"></path>
</symbol>
<symbol id="icon-arrow-right" viewBox="0 0 32 32">
<path stroke-linejoin="round" stroke-linecap="round" stroke-miterlimit="4" stroke-width="4.8" d="M9.6 3.2l12.8 12.8-12.8 12.8"></path>
</symbol>
<symbol id="icon-menu" viewBox="0 0 32 32">
<path stroke-linejoin="round" stroke-linecap="round" stroke-miterlimit="4" stroke-width="2.5" d="M4 16h24M4 8h24M4 24h24"></path>
</symbol>
<symbol id="icon-arrow-down" viewBox="0 0 32 32">
<path stroke-linejoin="miter" stroke-linecap="round" stroke-miterlimit="4" stroke-width="2" d="M22 13l-6 6-6-6"></path>
</symbol>
<symbol id="icon-arrow-up" viewBox="0 0 32 32">
<path stroke-linejoin="miter" stroke-linecap="round" stroke-miterlimit="4" stroke-width="2" d="M22 19l-6-6-6 6"></path>
</symbol>
<symbol id="icon-logout" viewBox="0 0 32 32">
<path stroke-linejoin="round" stroke-linecap="round" stroke-miterlimit="4" stroke-width="1.5" d="M11.867 10.080c0.413-4.8 2.88-6.76 8.28-6.76h0.173c5.96 0 8.347 2.387 8.347 8.347v8.693c0 5.96-2.387 8.347-8.347 8.347h-0.173c-5.36 0-7.827-1.933-8.267-6.653"></path>
<path stroke-linejoin="round" stroke-linecap="round" stroke-miterlimit="4" stroke-width="1.5" d="M2.667 16h17.173"></path>
<path stroke-linejoin="round" stroke-linecap="round" stroke-miterlimit="4" stroke-width="1.5" d="M16.867 11.533l4.467 4.467-4.467 4.467"></path>
</symbol>
<symbol id="icon-logo" viewBox="0 0 32 32">
  <path fill="#161616" style="fill: var(--color1, #1F1F1F)" d="M26.667 0h-21.333c-2.946 0-5.333 2.388-5.333 5.333v21.333c0 2.946 2.388 5.333 5.333 5.333h21.333c2.946 0 5.333-2.388 5.333-5.333v-21.333c0-2.946-2.388-5.333-5.333-5.333z"></path>
  <path fill="" d="M13.331 23.027c0.244-1.272 0.453-2.61 0.747-3.949 0.145-0.701-0.032-0.999-0.815-0.946s-1.657 0.027-2.49 0c-0.833-0.027-0.982-0.446-0.502-1.044 2.363-2.918 4.753-5.8 7.134-8.674 0.267-0.326 0.575-0.558 1.014-0.312s0.349 0.549 0.276 0.915c-0.263 1.339-0.48 2.677-0.77 3.989-0.149 0.678 0.045 0.919 0.751 0.892 0.709-0.036 1.419-0.036 2.127 0 0.403 0 0.932-0.21 1.141 0.339s-0.231 0.781-0.453 1.107c-0.905 1.115-1.823 2.229-2.752 3.342-1.361 1.624-2.711 3.242-4.051 4.854-0.263 0.317-0.557 0.571-1.005 0.41s-0.353-0.54-0.353-0.924z"></path>
</symbol>
<symbol id="icon-user-light" viewBox="0 0 32 32">
<path fill="#f6f6f7" style="fill: var(--color1, #f6f6f7)" d="M3.765 0h24.471c2.079 0 3.765 1.686 3.765 3.765v24.471c0 2.079-1.686 3.765-3.765 3.765h-24.471c-2.079 0-3.765-1.686-3.765-3.765v-24.471c0-2.079 1.686-3.765 3.765-3.765z"></path>
<path fill="#fff" style="fill: var(--color2, #fff)" d="M21.49 14.745c0 2.946-2.388 5.333-5.333 5.333s-5.333-2.388-5.333-5.333c0-2.946 2.388-5.333 5.333-5.333s5.333 2.388 5.333 5.333z"></path>
<path fill="#fff" style="fill: var(--color2, #fff)" d="M29.060 32.853c0-1.723-0.339-3.429-0.999-5.020s-1.626-3.038-2.844-4.256c-1.218-1.218-2.664-2.184-4.256-2.844s-3.297-0.999-5.020-0.999c-1.723 0-3.429 0.339-5.020 0.999s-3.038 1.626-4.256 2.844c-1.218 1.218-2.184 2.664-2.844 4.256s-0.999 3.297-0.999 5.020h26.237z"></path>
</symbol><symbol id="icon-user-violet" viewBox="0 0 32 32">
<path fill="#ecedfd" style="fill: var(--color3, #ecedfd)" d="M3.765 0h24.471c2.079 0 3.765 1.686 3.765 3.765v24.471c0 2.079-1.686 3.765-3.765 3.765h-24.471c-2.079 0-3.765-1.686-3.765-3.765v-24.471c0-2.079 1.686-3.765 3.765-3.765z"></path>
<path fill="#fff" style="fill: var(--color2, #fff)" d="M21.49 14.745c0 2.946-2.388 5.333-5.333 5.333s-5.333-2.388-5.333-5.333c0-2.946 2.388-5.333 5.333-5.333s5.333 2.388 5.333 5.333z"></path>
<path fill="#fff" style="fill: var(--color2, #fff)" d="M29.060 32.853c0-1.723-0.339-3.429-0.999-5.020s-1.626-3.038-2.844-4.256c-1.218-1.218-2.664-2.184-4.256-2.844s-3.297-0.999-5.020-0.999c-1.723 0-3.429 0.339-5.020 0.999s-3.038 1.626-4.256 2.844c-1.218 1.218-2.184 2.664-2.844 4.256s-0.999 3.297-0.999 5.020h26.237z"></path>
</symbol>
<symbol id="icon-user-dark" viewBox="0 0 32 32">
<path fill="#1f1f1f" style="fill: var(--color1, #1f1f1f)" d="M3.765 0h24.471c2.079 0 3.765 1.686 3.765 3.765v24.471c0 2.079-1.686 3.765-3.765 3.765h-24.471c-2.079 0-3.765-1.686-3.765-3.765v-24.471c0-2.079 1.686-3.765 3.765-3.765z"></path>
<path fill="#151515" style="fill: var(--color2, #151515)" d="M21.49 14.745c0 2.946-2.388 5.333-5.333 5.333s-5.333-2.388-5.333-5.333c0-2.946 2.388-5.333 5.333-5.333s5.333 2.388 5.333 5.333z"></path>
<path fill="#151515" style="fill: var(--color2, #151515)" d="M29.060 32.853c0-1.723-0.339-3.429-0.999-5.020s-1.626-3.038-2.844-4.256c-1.218-1.218-2.664-2.184-4.256-2.844s-3.297-0.999-5.020-0.999c-1.723 0-3.429 0.339-5.020 0.999s-3.038 1.626-4.256 2.844c-1.218 1.218-2.184 2.664-2.844 4.256s-0.999 3.297-0.999 5.020h26.237z"></path>
</symbol>
<symbol id="icon-logo-violet" viewBox="0 0 32 32">
<path fill="#ecedfd" style="fill: var(--color1, #ecedfd)" d="M24 0h-16c-4.418 0-8 3.582-8 8v16c0 4.418 3.582 8 8 8h16c4.418 0 8-3.582 8-8v-16c0-4.418-3.582-8-8-8z"></path>
<path fill="#5255bc" style="fill: var(--color2, #5255bc)" d="M13.331 23.027c0.245-1.272 0.453-2.61 0.747-3.949 0.145-0.701-0.032-0.999-0.815-0.946s-1.657 0.027-2.49 0c-0.833-0.027-0.982-0.446-0.502-1.044 2.363-2.918 4.753-5.8 7.134-8.674 0.267-0.326 0.575-0.558 1.014-0.312s0.349 0.549 0.276 0.915c-0.263 1.339-0.48 2.677-0.77 3.989-0.149 0.678 0.045 0.919 0.751 0.892 0.709-0.036 1.419-0.036 2.127 0 0.403 0 0.933-0.21 1.141 0.339s-0.231 0.781-0.453 1.107c-0.905 1.115-1.823 2.229-2.752 3.342-1.361 1.624-2.711 3.242-4.051 4.854-0.263 0.317-0.557 0.571-1.005 0.41s-0.353-0.54-0.353-0.924z"></path>
</symbol>
<symbol id="icon-google" viewBox="0 0 32 32">
<path fill="#fbbc05" style="fill: var(--color1, #fbbc05)" d="M6.885 16c0-1.016 0.169-1.991 0.47-2.904l-5.273-4.027c-1.013 2.014-1.607 4.39-1.607 6.904 0 0.009 0 0.019 0 0.028v-0.001c0 2.491 0.579 4.84 1.605 6.925l5.27-4.033c-0.294-0.863-0.465-1.858-0.465-2.892v-0z"></path>
<path fill="#eb4335" style="fill: var(--color2, #eb4335)" d="M16.143 6.755c2.207 0 4.201 0.783 5.768 2.063l4.557-4.551c-2.777-2.418-6.338-3.911-10.325-3.911-0.015-0-0.032-0-0.050-0-6.112 0-11.403 3.51-13.97 8.624l-0.041 0.090 5.272 4.027c1.252-3.713 4.703-6.34 8.768-6.34 0.007 0 0.014 0 0.021 0h-0.001z"></path>
<path fill="#34a853" style="fill: var(--color3, #34a853)" d="M16.143 25.245c-0.006 0-0.013 0-0.020 0-4.065 0-7.516-2.627-8.749-6.275l-0.019-0.065-5.273 4.025c2.607 5.204 7.899 8.715 14.011 8.715 0.017 0 0.035-0 0.052-0h-0.003c3.821 0 7.47-1.357 10.208-3.899l-5.005-3.869c-1.412 0.89-3.191 1.369-5.203 1.369z"></path>
<path fill="#4285f4" style="fill: var(--color4, #4285f4)" d="M31.097 16c0-0.925-0.142-1.92-0.356-2.845h-14.598v6.045h8.403c-0.42 2.061-1.564 3.645-3.2 4.676l5.005 3.869c2.876-2.669 4.747-6.646 4.747-11.745z"></path>
</symbol>
</defs>
</svg>
